<svg width="26" height="26" viewBox="0 0 26 26" fill="none" xmlns="http://www.w3.org/2000/svg">
<path d="M23.6902 8.49756C22.3888 2.63805 17.3938 0 13.0062 0C13.0062 0 13.0062 0 12.9938 0C8.61857 0 3.61124 2.62537 2.30983 8.48488C0.85969 15.0293 4.77631 20.5717 8.3211 24.0595C9.63491 25.3532 11.3206 26 13.0062 26C14.6919 26 16.3775 25.3532 17.6789 24.0595C21.2237 20.5717 25.1403 15.042 23.6902 8.49756ZM13.0062 14.8517C10.8496 14.8517 9.10195 13.0634 9.10195 10.8566C9.10195 8.64976 10.8496 6.86146 13.0062 6.86146C15.1628 6.86146 16.9104 8.64976 16.9104 10.8566C16.9104 13.0634 15.1628 14.8517 13.0062 14.8517Z" fill="black"/>
</svg>
