<svg width="26" height="26" viewBox="0 0 26 26" fill="none" xmlns="http://www.w3.org/2000/svg">
<path d="M25.9786 12.2319C25.5367 4.69296 18.6866 -1.11727 10.7966 0.182561C5.3633 1.07944 1.00887 5.48584 0.163977 10.9191C-0.329959 14.0647 0.319982 17.0413 1.7368 19.498L0.579935 23.8004C0.319969 24.7753 1.21683 25.6592 2.1787 25.3862L6.41616 24.2164C8.33991 25.3472 10.5886 25.9971 12.9933 25.9971C20.3244 25.9971 26.4076 19.537 25.9786 12.2319ZM19.3495 17.8342C19.2325 18.0682 19.0895 18.2891 18.9075 18.4971C18.5826 18.8481 18.2316 19.108 17.8417 19.264C17.4517 19.433 17.0228 19.511 16.5678 19.511C15.9049 19.511 15.19 19.3551 14.4491 19.0302C13.6952 18.7052 12.9543 18.2761 12.2134 17.7432C11.4595 17.1973 10.7576 16.5864 10.0817 15.9234C9.40578 15.2475 8.80782 14.5326 8.26189 13.7917C7.72896 13.0508 7.30004 12.3099 6.98808 11.569C6.67613 10.8281 6.52017 10.1133 6.52017 9.43735C6.52017 8.9954 6.59815 8.56645 6.75413 8.1765C6.91011 7.77356 7.1571 7.40962 7.50806 7.08466C7.924 6.66871 8.37892 6.47374 8.85985 6.47374C9.04182 6.47374 9.22377 6.51272 9.39275 6.59071C9.56172 6.6687 9.71773 6.78569 9.83473 6.95466L11.3425 9.08637C11.4595 9.25535 11.5505 9.39833 11.6025 9.54131C11.6675 9.68429 11.6935 9.81428 11.6935 9.94426C11.6935 10.1002 11.6415 10.2562 11.5505 10.4122C11.4595 10.5681 11.3425 10.7241 11.1865 10.8801L10.6926 11.4C10.6146 11.478 10.5886 11.556 10.5886 11.66C10.5886 11.712 10.6016 11.764 10.6146 11.816C10.6406 11.868 10.6536 11.907 10.6666 11.946C10.7836 12.1669 10.9916 12.4399 11.2775 12.7779C11.5765 13.1158 11.8885 13.4668 12.2264 13.8047C12.5774 14.1557 12.9153 14.4676 13.2663 14.7666C13.6042 15.0526 13.8902 15.2475 14.1112 15.3645C14.1502 15.3775 14.1892 15.4035 14.2282 15.4165C14.2801 15.4425 14.3321 15.4425 14.3971 15.4425C14.5141 15.4425 14.5921 15.4035 14.6701 15.3255L15.164 14.8316C15.333 14.6626 15.489 14.5456 15.632 14.4676C15.7879 14.3766 15.9309 14.3246 16.0999 14.3246C16.2299 14.3246 16.3599 14.3506 16.5029 14.4156C16.6458 14.4806 16.8018 14.5586 16.9578 14.6756L19.1155 16.2094C19.2845 16.3264 19.4015 16.4694 19.4795 16.6253C19.5445 16.7943 19.5835 16.9503 19.5835 17.1323C19.5055 17.3533 19.4535 17.6002 19.3495 17.8342Z" fill="black"/>
</svg>
